<svg id="Layer_1" data-name="Layer 1" xmlns="http://www.w3.org/2000/svg" viewBox="0 0 491.76 111.58"><defs><style>.cls-1{fill:#fff;}.cls-2{fill:#5c9f96;}.cls-3{fill:#d97a79;}</style></defs><title>expo-logo</title><path class="cls-1" d="M10.77,56.81h6.41q4.2,0.1,6.36,2.39t2.15,6.87q0,4.59-2.15,6.87t-6.36,2.39H10.77V56.81Zm1.77,17h3.76a12.13,12.13,0,0,0,3.44-.43A5.52,5.52,0,0,0,22.1,72a5.61,5.61,0,0,0,1.37-2.41,14.55,14.55,0,0,0,0-7.11A5.6,5.6,0,0,0,22.1,60.1a5.49,5.49,0,0,0-2.37-1.36,12.13,12.13,0,0,0-3.44-.43H12.53V73.83Z" transform="translate(-10.77 -10.12)"/><path class="cls-1" d="M28.54,56.81H41.32v1.5h-11V65H40.62v1.5H30.3v7.31H41.45v1.5H28.54V56.81Z" transform="translate(-10.77 -10.12)"/><path class="cls-1" d="M44.75,68.85a5.23,5.23,0,0,0,.44,2.39,3.93,3.93,0,0,0,1.28,1.53,5.35,5.35,0,0,0,1.93.82,11,11,0,0,0,2.39.25,7,7,0,0,0,1.58-.2A5.63,5.63,0,0,0,54,73a4,4,0,0,0,1.23-1.12,2.74,2.74,0,0,0,.49-1.65,2.34,2.34,0,0,0-.35-1.29A3.14,3.14,0,0,0,54.44,68a5.43,5.43,0,0,0-1.23-.61A12.33,12.33,0,0,0,51.88,67l-4.12-1a11.49,11.49,0,0,1-1.58-.49,4.55,4.55,0,0,1-1.32-.79,3.78,3.78,0,0,1-.92-1.22,4,4,0,0,1-.35-1.76,5.35,5.35,0,0,1,.26-1.51,4.14,4.14,0,0,1,1-1.64,5.65,5.65,0,0,1,2-1.3A8.16,8.16,0,0,1,50,56.81a9.31,9.31,0,0,1,2.62.36,6.61,6.61,0,0,1,2.19,1.09,5.24,5.24,0,0,1,1.49,1.8,5.5,5.5,0,0,1,.54,2.5H55a4.45,4.45,0,0,0-.46-1.86,4,4,0,0,0-1.12-1.32,5.07,5.07,0,0,0-1.6-.8A6.43,6.43,0,0,0,50,58.31a8.14,8.14,0,0,0-1.75.18,4.51,4.51,0,0,0-1.48.6,3.14,3.14,0,0,0-1,1.08,3.26,3.26,0,0,0-.39,1.66,2.45,2.45,0,0,0,.22,1.08,2.16,2.16,0,0,0,.61.77,3.77,3.77,0,0,0,.89.52,6.21,6.21,0,0,0,1.08.33l4.51,1.07a13.18,13.18,0,0,1,1.85.61,6.21,6.21,0,0,1,1.53.89,3.81,3.81,0,0,1,1,1.3,4.22,4.22,0,0,1,.38,1.86,6.5,6.5,0,0,1-.07.79,3.82,3.82,0,0,1-.31,1.05,5.22,5.22,0,0,1-.7,1.13,4.48,4.48,0,0,1-1.25,1,7.15,7.15,0,0,1-2,.76,12,12,0,0,1-2.8.29,11.71,11.71,0,0,1-3-.37A6.4,6.4,0,0,1,45,73.79a5.16,5.16,0,0,1-1.52-2A6.55,6.55,0,0,1,43,68.85h1.76Z" transform="translate(-10.77 -10.12)"/><path class="cls-1" d="M60.39,56.81h1.76V75.33H60.39V56.81Z" transform="translate(-10.77 -10.12)"/><path class="cls-1" d="M81.84,75.33H80.57L80.34,72H80.29a6.4,6.4,0,0,1-1.16,1.7,6.3,6.3,0,0,1-1.52,1.17,3.87,3.87,0,0,1-1.78.48l-2,0a9.06,9.06,0,0,1-3.83-.76,7.83,7.83,0,0,1-2.74-2,8.59,8.59,0,0,1-1.63-3,11.48,11.48,0,0,1,0-7,8.6,8.6,0,0,1,1.63-3,7.82,7.82,0,0,1,2.74-2,9,9,0,0,1,3.83-.76,9.49,9.49,0,0,1,2.75.39,7.22,7.22,0,0,1,2.32,1.17,6.72,6.72,0,0,1,1.71,1.93A7.68,7.68,0,0,1,81.61,63H79.84a4.16,4.16,0,0,0-.53-1.62,5.64,5.64,0,0,0-1.22-1.49,6.24,6.24,0,0,0-1.83-1.1,6.34,6.34,0,0,0-2.39-.43,6.94,6.94,0,0,0-3.16.67,6.17,6.17,0,0,0-2.17,1.77,7.41,7.41,0,0,0-1.25,2.49,10.19,10.19,0,0,0,0,5.67,7.41,7.41,0,0,0,1.25,2.48,6.17,6.17,0,0,0,2.17,1.77,7,7,0,0,0,3.16.67,7.4,7.4,0,0,0,2.74-.48,5.73,5.73,0,0,0,2-1.33,5.52,5.52,0,0,0,1.25-2,7.29,7.29,0,0,0,.39-2.57H74v-1.5h7.86v9.41Z" transform="translate(-10.77 -10.12)"/><path class="cls-1" d="M85.21,56.81h2L98,72.48H98V56.81h1.76V75.33h-2L87,59.66H87V75.33H85.21V56.81Z" transform="translate(-10.77 -10.12)"/><path class="cls-1" d="M457.63,75.35H445.25a6.11,6.11,0,0,1,.5-2.41A7.38,7.38,0,0,1,447,71a10.62,10.62,0,0,1,1.68-1.54q0.94-.69,1.93-1.34t2-1.3a12.9,12.9,0,0,0,1.77-1.44,5.72,5.72,0,0,0,1.17-1.56,4.32,4.32,0,0,0,.39-1.9,3.61,3.61,0,0,0-.34-1.59,3.53,3.53,0,0,0-.91-1.18,4,4,0,0,0-1.34-.73,5.17,5.17,0,0,0-1.62-.25,4.19,4.19,0,0,0-2,.43,3.71,3.71,0,0,0-1.33,1.16,4.78,4.78,0,0,0-.74,1.67,7.49,7.49,0,0,0-.2,2H445.7a8.84,8.84,0,0,1,.34-2.67,5.72,5.72,0,0,1,1.11-2.11A5.13,5.13,0,0,1,449,57.29a6.67,6.67,0,0,1,2.67-.5,7.75,7.75,0,0,1,2.3.33,5.2,5.2,0,0,1,1.84,1,4.78,4.78,0,0,1,1.23,1.61,5.16,5.16,0,0,1,.46,2.24,5.47,5.47,0,0,1-.39,2.1,6.62,6.62,0,0,1-1,1.73,9.9,9.9,0,0,1-1.52,1.46q-0.86.67-1.77,1.25c-0.47.3-1,.63-1.6,1a17.63,17.63,0,0,0-1.74,1.19A9.57,9.57,0,0,0,448,72.1a3.59,3.59,0,0,0-.8,1.69h10.44v1.56Z" transform="translate(-10.77 -10.12)"/><path class="cls-1" d="M470,57.66a6,6,0,0,1,2,2.2,9.35,9.35,0,0,1,1,3,20.67,20.67,0,0,1,0,6.46,9.33,9.33,0,0,1-1,3,6,6,0,0,1-2,2.2,6.88,6.88,0,0,1-6.67,0,6,6,0,0,1-2-2.2,9.32,9.32,0,0,1-1-3,21.13,21.13,0,0,1-.26-3.22,21.4,21.4,0,0,1,.26-3.23,9.35,9.35,0,0,1,1-3,6,6,0,0,1,2-2.2A6.89,6.89,0,0,1,470,57.66ZM464.1,59a5,5,0,0,0-1.46,2,9.23,9.23,0,0,0-.66,2.55,19.85,19.85,0,0,0,0,5.07,9.43,9.43,0,0,0,.66,2.55,5,5,0,0,0,1.46,2,4.59,4.59,0,0,0,5.16,0,5,5,0,0,0,1.46-2,9.46,9.46,0,0,0,.66-2.55,20,20,0,0,0,0-5.07,9.27,9.27,0,0,0-.66-2.55,5,5,0,0,0-1.46-2A4.59,4.59,0,0,0,464.1,59Z" transform="translate(-10.77 -10.12)"/><path class="cls-1" d="M476.75,60.18q1.1,0,2-.11a4.61,4.61,0,0,0,1.56-.4,2.68,2.68,0,0,0,1.1-1A4.83,4.83,0,0,0,482,56.8h1.37V75.35h-1.69v-14h-5V60.18Z" transform="translate(-10.77 -10.12)"/><path class="cls-1" d="M490.44,56.8h12.08v1.56q-0.89.91-2.12,2.46a25.57,25.57,0,0,0-2.4,3.68,27.79,27.79,0,0,0-2,4.86,23.32,23.32,0,0,0-1,6H493.1a28.23,28.23,0,0,1,.66-4.51,22,22,0,0,1,1.43-4.15,27.89,27.89,0,0,1,2.31-4.07,43.32,43.32,0,0,1,3.34-4.27H490.44V56.8Z" transform="translate(-10.77 -10.12)"/><path class="cls-1" d="M137.69,66.24h-1.85a37.94,37.94,0,0,1,37.9-37.9v1.85A36.09,36.09,0,0,0,137.69,66.24Z" transform="translate(-10.77 -10.12)"/><path class="cls-1" d="M211.64,66.24h-1.85a36.09,36.09,0,0,0-36.05-36.05V28.33A37.94,37.94,0,0,1,211.64,66.24Z" transform="translate(-10.77 -10.12)"/><path class="cls-1" d="M173.74,104.14a37.94,37.94,0,0,1-37.9-37.9h1.85a36.09,36.09,0,0,0,36.05,36v1.85Z" transform="translate(-10.77 -10.12)"/><rect class="cls-1" x="107.51" y="55.2" width="18.49" height="1.85"/><rect class="cls-1" x="162.05" y="55.19" width="38.83" height="1.85"/><rect class="cls-1" x="397.5" y="55.18" width="18.49" height="1.85"/><path class="cls-1" d="M404.11,51.32a36.09,36.09,0,0,0-47.74-17.9l-0.77-1.68A38,38,0,0,1,405.8,50.55Z" transform="translate(-10.77 -10.12)"/><path class="cls-1" d="M387,100.74l-0.77-1.68a36,36,0,0,0,17.9-47.74l1.68-.77A37.88,37.88,0,0,1,387,100.74Z" transform="translate(-10.77 -10.12)"/><path class="cls-1" d="M371.35,104.14a38,38,0,0,1-34.56-22.22l1.68-.77a36.1,36.1,0,0,0,47.74,17.9l0.77,1.68A37.7,37.7,0,0,1,371.35,104.14Z" transform="translate(-10.77 -10.12)"/><rect class="cls-1" x="285.65" y="74.61" width="1.85" height="36.97"/><path class="cls-1" d="M335.24,47.75h-1.85a17.58,17.58,0,0,0-17.56-17.56V28.33A19.44,19.44,0,0,1,335.24,47.75Z" transform="translate(-10.77 -10.12)"/><path class="cls-1" d="M315.83,67.16V65.31a17.58,17.58,0,0,0,17.56-17.57h1.85A19.44,19.44,0,0,1,315.83,67.16Z" transform="translate(-10.77 -10.12)"/><path class="cls-1" d="M298.27,84.72h-1.85a19.43,19.43,0,0,1,19.41-19.41v1.85A17.58,17.58,0,0,0,298.27,84.72Z" transform="translate(-10.77 -10.12)"/><polygon class="cls-2" points="240.35 57.43 241.66 56.12 240.35 54.81 240.35 54.81 231.76 46.22 231.76 46.22 185.54 0 184.23 1.31 230.45 47.53 230.45 47.53 239.04 56.12 230.45 64.71 230.45 64.71 202.72 92.44 204.03 93.75 231.11 66.67 231.11 66.67 231.5 66.28 231.76 66.02 231.76 66.02 240.35 57.43 240.35 57.43"/><polygon class="cls-3" points="259.5 64.71 250.9 56.12 260.15 46.88 260.15 46.88 287.23 19.8 285.92 18.49 258.84 45.57 258.84 45.57 248.29 56.12 258.84 66.67 258.84 66.67 267.43 75.26 268.74 73.95 259.5 64.71 259.5 64.71"/></svg>