<svg id="Layer_1" data-name="Layer 1" xmlns="http://www.w3.org/2000/svg" viewBox="0 0 124.79 109.9"><defs><style>.cls-1{fill:#5c9f96;}.cls-2,.cls-3{fill:#fff;stroke-miterlimit:10;stroke-width:3px;}.cls-2{stroke:#dd7b7e;}.cls-3{stroke:#319f95;}</style></defs><title>expox-farge</title><line class="cls-1" x1="63.84" y1="63.9" x2="54.16" y2="54.22"/><polygon class="cls-2" points="91.42 75.05 81.73 65.37 92.15 54.95 92.15 54.95 122.67 24.43 121.2 22.96 90.68 53.48 90.68 53.48 78.79 65.37 90.68 77.26 90.68 77.26 100.36 86.94 101.83 85.47 91.42 75.05 91.42 75.05"/><polygon class="cls-3" points="65.37 66.84 66.84 65.37 65.37 63.9 65.37 63.9 55.69 54.21 55.69 54.21 3.6 2.12 2.12 3.6 54.21 55.69 54.21 55.69 63.9 65.37 54.21 75.05 54.21 75.05 22.96 106.31 24.43 107.78 54.95 77.26 54.95 77.26 55.4 76.82 55.69 76.53 55.69 76.53 65.37 66.84 65.37 66.84"/></svg>