<?xml version="1.0" encoding="utf-8"?>
<!-- Generator: Adobe Illustrator 19.2.1, SVG Export Plug-In . SVG Version: 6.00 Build 0)  -->
<svg version="1.1" id="Layer_1" xmlns="http://www.w3.org/2000/svg" xmlns:xlink="http://www.w3.org/1999/xlink" x="0px" y="0px"
	 viewBox="0 0 559.7 94.7" style="enable-background:new 0 0 559.7 94.7;" xml:space="preserve">
<style type="text/css">
	.st0{opacity:0.7;fill:none;stroke:#5C9F96;stroke-width:4;stroke-linecap:round;stroke-miterlimit:10;}
	.st1{opacity:0.7;fill:#5C9F96;}
	.st2{fill:#A1D2AE;}
</style>
<g>
	<line class="st0" x1="61.5" y1="86.9" x2="33.2" y2="30.2"/>
	<line class="st0" x1="51.5" y1="86.9" x2="33.7" y2="49.1"/>
	<rect x="89.9" y="1.9" class="st1" width="56.7" height="9.4"/>
	<rect x="118.2" y="30.2" class="st1" width="28.3" height="18.9"/>
	<rect x="184.4" y="30.2" class="st1" width="18.9" height="28.3"/>
	<rect x="241" y="58.5" class="st1" width="18.9" height="28.3"/>
	<rect x="4.8" y="30.2" class="st2" width="18.9" height="56.7"/>
	<rect x="373.3" y="49.1" class="st2" width="18.9" height="37.8"/>
	<rect x="335.5" y="30.2" class="st1" width="18.9" height="56.7"/>
	<rect x="241" y="1.9" class="st1" width="18.9" height="18.9"/>
	<rect x="269.4" y="30.2" class="st1" width="9.4" height="18.9"/>
	<line class="st0" x1="212.7" y1="11.3" x2="250.5" y2="11.3"/>
	<line class="st0" x1="382.8" y1="68" x2="345" y2="68"/>
	<path class="st2" d="M118.2,86.9c-15.7,0-28.3-12.7-28.3-28.3c0-15.7,12.7-28.3,28.3-28.3c0,0,0,8.5,0,18.9c-5.2,0-9.4,4.2-9.4,9.4
		s4.2,9.4,9.4,9.4C118.2,68,118.2,76.4,118.2,86.9z"/>
	<rect x="496.1" y="1.9" class="st2" width="56.7" height="9.4"/>
	<rect x="524.5" y="30.2" class="st2" width="28.3" height="18.9"/>
	<rect x="496.1" y="68" class="st2" width="56.7" height="18.9"/>
	<path class="st1" d="M524.5,86.9c-15.7,0-28.3-12.7-28.3-28.3c0-15.7,12.7-28.3,28.3-28.3c0,0,0,8.5,0,18.9c-5.2,0-9.4,4.2-9.4,9.4
		s4.2,9.4,9.4,9.4C524.5,68,524.5,76.4,524.5,86.9z"/>
	<path class="st2" d="M335.5,30.2c0-15.7,12.7-28.3,28.3-28.3c15.7,0,28.3,12.7,28.3,28.3c0,0-8.5,0-18.9,0c0-5.2-4.2-9.4-9.4-9.4
		c-5.2,0-9.4,4.2-9.4,9.4C354.4,30.2,346,30.2,335.5,30.2z"/>
	<rect x="420.6" y="68" class="st1" width="18.9" height="18.9"/>
	<path class="st2" d="M477.2,30.2c0,15.7-12.7,28.3-28.3,28.3c-15.7,0-28.3-12.7-28.3-28.3c0,0,8.5,0,18.9,0c0,5.2,4.2,9.4,9.4,9.4
		c5.2,0,9.4-4.2,9.4-9.4C458.4,30.2,466.8,30.2,477.2,30.2z"/>
	<path class="st1" d="M420.6,30.2c0-15.7,12.7-28.3,28.3-28.3c15.7,0,28.3,12.7,28.3,28.3c0,0-8.5,0-18.9,0c0-5.2-4.2-9.4-9.4-9.4
		c-5.2,0-9.4,4.2-9.4,9.4C439.5,30.2,431,30.2,420.6,30.2z"/>
	<path class="st2" d="M4.8,30.2c0-15.7,12.7-28.3,28.3-28.3c15.7,0,28.3,12.7,28.3,28.3c0,0-8.5,0-18.9,0c0-5.2-4.2-9.4-9.4-9.4
		c-5.2,0-9.4,4.2-9.4,9.4C23.7,30.2,15.3,30.2,4.8,30.2z"/>
	<path class="st1" d="M61.5,30.2c0,15.7-12.7,28.3-28.3,28.3c-15.7,0-28.3-12.7-28.3-28.3c0,0,8.5,0,18.9,0c0,5.2,4.2,9.4,9.4,9.4
		c5.2,0,9.4-4.2,9.4-9.4C42.6,30.2,51.1,30.2,61.5,30.2z"/>
	<path class="st2" d="M174.9,86.9c15.7,0,28.3-12.7,28.3-28.3c-10.4,0-18.9,0-18.9,0c0,5.2-4.2,9.4-9.4,9.4
		C174.9,78.4,174.9,86.9,174.9,86.9z"/>
	<path class="st2" d="M212.7,1.9c-15.7,0-28.3,12.7-28.3,28.3c10.4,0,18.9,0,18.9,0c0-5.2,4.2-9.4,9.4-9.4
		C212.7,10.3,212.7,1.9,212.7,1.9z"/>
	<path class="st2" d="M269.4,30.2c-15.7,0-28.3,12.7-28.3,28.3c10.4,0,18.9,0,18.9,0c0-5.2,4.2-9.4,9.4-9.4
		C269.4,38.7,269.4,30.2,269.4,30.2z"/>
	<path class="st2" d="M278.8,49.1c15.7,0,28.3-12.7,28.3-28.3c-10.4,0-18.9,0-18.9,0c0,5.2-4.2,9.4-9.4,9.4
		C278.8,40.6,278.8,49.1,278.8,49.1z"/>
	<rect x="89.9" y="68" class="st1" width="56.7" height="18.9"/>
	<rect x="288.3" y="1.9" class="st1" width="18.9" height="85"/>
	<line class="st0" x1="430" y1="77.4" x2="430" y2="39.6"/>
</g>
</svg>
