<?xml version="1.0" encoding="utf-8"?>
<!-- Generator: Adobe Illustrator 16.0.0, SVG Export Plug-In . SVG Version: 6.00 Build 0)  -->
<!DOCTYPE svg PUBLIC "-//W3C//DTD SVG 1.1//EN" "http://www.w3.org/Graphics/SVG/1.1/DTD/svg11.dtd">
<svg version="1.1" id="Layer_1" xmlns="http://www.w3.org/2000/svg" xmlns:xlink="http://www.w3.org/1999/xlink" x="0px" y="0px"
	 width="472.966px" height="173.078px" viewBox="0 0 472.966 173.078" enable-background="new 0 0 472.966 173.078"
	 xml:space="preserve">
<g>
	<path fill="#FFFFFF" d="M32.598,88.048c0-28.917,23.524-52.443,52.439-52.443c27.483,0,50.08,21.256,52.254,48.189H80.787v8.504
		h65.197v-8.504h-0.167c-2.193-31.627-28.606-56.693-60.78-56.693S26.451,52.168,24.259,83.796H0V92.3h24.259
		c2.192,31.625,28.605,56.689,60.778,56.689v-8.504C56.122,140.485,32.598,116.962,32.598,88.048z"/>
	<path fill="#FFFFFF" d="M472.966,83.772h-24.219c-0.509-7.146-2.282-14.224-5.338-20.945c-13.906-30.593-50.109-44.17-80.7-30.266
		l3.519,7.742c26.324-11.966,57.474-0.28,69.44,26.043c5.801,12.763,6.29,27.01,1.374,40.117s-14.652,23.521-27.415,29.322
		c-26.323,11.966-57.475,0.283-69.442-26.041l-7.741,3.52c10.202,22.44,32.396,35.724,55.576,35.724
		c8.421,0,16.975-1.755,25.126-5.46c14.832-6.741,26.146-18.844,31.859-34.078c2.099-5.596,3.342-11.371,3.751-17.174h24.21V83.772z
		"/>
	<path fill="#FFFFFF" d="M302.888,27.101v8.504c13.285,0,24.094,10.809,24.094,24.094c0,13.286-10.809,24.096-24.094,24.096
		c-17.975,0-32.598,14.623-32.598,32.598l0.01,56.687l8.504-0.002l-0.008-56.684l0-0.28c0.15-13.157,10.9-23.814,24.092-23.814
		c17.975,0,32.598-14.624,32.598-32.6C335.485,41.724,320.862,27.101,302.888,27.101z"/>
	<polygon fill="#00A79D" points="203.674,82.032 189.501,67.859 189.5,67.859 121.64,0 115.627,6.014 186.495,76.88 186.495,76.88 
		197.661,88.046 186.495,99.212 186.495,99.212 143.973,141.732 149.986,147.746 189.5,108.232 189.501,108.232 203.674,94.06 
		203.675,94.06 209.688,88.046 203.675,82.032 	"/>
	<polygon fill="#FF7B7B" points="235.027,99.212 223.861,88.046 235.027,76.879 235.027,76.879 277.548,34.357 271.535,28.344 
		232.021,67.858 232.021,67.858 217.848,82.032 217.848,82.032 211.834,88.046 217.848,94.06 217.848,94.06 229.014,105.226 
		229.014,105.226 243.187,119.398 249.2,113.385 235.027,99.212 	"/>
</g>
</svg>
