<?xml version="1.0" encoding="utf-8"?>
<!-- Generator: Adobe Illustrator 21.0.0, SVG Export Plug-In . SVG Version: 6.00 Build 0)  -->
<svg version="1.1" id="Layer_1" xmlns="http://www.w3.org/2000/svg" xmlns:xlink="http://www.w3.org/1999/xlink" x="0px" y="0px"
	 viewBox="0 0 512.7 128.6" style="enable-background:new 0 0 512.7 128.6;" xml:space="preserve">
<style type="text/css">
	.st0{fill:#3F3E40;}
</style>
<g>
	<g>
		<path class="st0" d="M10.8,56.8h6.4c2.8,0.1,4.9,0.9,6.4,2.4c1.4,1.5,2.2,3.8,2.2,6.9c0,3.1-0.7,5.4-2.2,6.9
			c-1.4,1.5-3.6,2.3-6.4,2.4h-6.4V56.8z M12.5,73.8h3.8c1.3,0,2.5-0.1,3.4-0.4c1-0.3,1.8-0.7,2.4-1.4c0.6-0.6,1.1-1.4,1.4-2.4
			c0.3-1,0.4-2.2,0.4-3.6s-0.1-2.6-0.4-3.6c-0.3-1-0.8-1.8-1.4-2.4c-0.6-0.6-1.4-1.1-2.4-1.4c-1-0.3-2.1-0.4-3.4-0.4h-3.8V73.8z"/>
	</g>
	<g>
		<path class="st0" d="M28.5,56.8h12.8v1.5h-11V65h10.3v1.5H30.3v7.3h11.2v1.5H28.5V56.8z"/>
	</g>
	<g>
		<path class="st0" d="M44.7,68.8c0,1,0.1,1.7,0.4,2.4c0.3,0.6,0.7,1.2,1.3,1.5c0.5,0.4,1.2,0.7,1.9,0.8c0.7,0.2,1.5,0.2,2.4,0.2
			c0.5,0,1-0.1,1.6-0.2c0.6-0.1,1.1-0.3,1.6-0.6c0.5-0.3,0.9-0.7,1.2-1.1c0.3-0.5,0.5-1,0.5-1.6c0-0.5-0.1-0.9-0.4-1.3
			c-0.2-0.4-0.5-0.7-0.9-0.9c-0.4-0.2-0.8-0.5-1.2-0.6c-0.5-0.2-0.9-0.3-1.3-0.4l-4.1-1c-0.6-0.1-1.1-0.3-1.6-0.5
			c-0.5-0.2-0.9-0.5-1.3-0.8c-0.4-0.3-0.7-0.7-0.9-1.2c-0.2-0.5-0.3-1.1-0.3-1.8c0-0.4,0.1-0.9,0.3-1.5c0.2-0.6,0.5-1.1,1-1.6
			c0.5-0.5,1.1-0.9,2-1.3c0.8-0.4,1.9-0.5,3.2-0.5c0.9,0,1.8,0.1,2.6,0.4c0.8,0.2,1.6,0.6,2.2,1.1c0.6,0.5,1.1,1.1,1.5,1.8
			c0.4,0.7,0.5,1.6,0.5,2.5H55c0-0.7-0.2-1.3-0.5-1.9c-0.3-0.5-0.7-1-1.1-1.3c-0.5-0.4-1-0.6-1.6-0.8c-0.6-0.2-1.2-0.3-1.9-0.3
			c-0.6,0-1.2,0.1-1.8,0.2c-0.6,0.1-1.1,0.3-1.5,0.6c-0.4,0.3-0.8,0.6-1,1.1c-0.3,0.4-0.4,1-0.4,1.7c0,0.4,0.1,0.8,0.2,1.1
			c0.1,0.3,0.4,0.6,0.6,0.8c0.3,0.2,0.6,0.4,0.9,0.5c0.3,0.1,0.7,0.3,1.1,0.3l4.5,1.1c0.7,0.2,1.3,0.4,1.9,0.6
			c0.6,0.2,1.1,0.5,1.5,0.9c0.4,0.4,0.8,0.8,1,1.3c0.3,0.5,0.4,1.1,0.4,1.9c0,0.2,0,0.5-0.1,0.8c0,0.3-0.1,0.7-0.3,1.1
			c-0.2,0.4-0.4,0.7-0.7,1.1c-0.3,0.4-0.7,0.7-1.2,1c-0.5,0.3-1.2,0.6-2,0.8c-0.8,0.2-1.7,0.3-2.8,0.3c-1.1,0-2.1-0.1-3-0.4
			c-0.9-0.3-1.7-0.6-2.4-1.2c-0.7-0.5-1.2-1.2-1.5-2c-0.4-0.8-0.5-1.8-0.5-2.9H44.7z"/>
	</g>
	<g>
		<path class="st0" d="M60.4,56.8h1.8v18.5h-1.8V56.8z"/>
	</g>
	<g>
		<path class="st0" d="M81.8,75.3h-1.3L80.3,72h-0.1c-0.3,0.7-0.7,1.2-1.2,1.7c-0.5,0.5-1,0.9-1.5,1.2c-0.6,0.3-1.1,0.5-1.8,0.5
			c-0.6,0-1.3,0-2,0c-1.5,0-2.7-0.3-3.8-0.8c-1.1-0.5-2-1.2-2.7-2c-0.7-0.9-1.3-1.8-1.6-3c-0.4-1.1-0.5-2.3-0.5-3.5
			c0-1.2,0.2-2.4,0.5-3.5c0.4-1.1,0.9-2.1,1.6-3c0.7-0.9,1.6-1.5,2.7-2c1.1-0.5,2.4-0.8,3.8-0.8c1,0,1.9,0.1,2.8,0.4
			c0.9,0.3,1.6,0.6,2.3,1.2c0.7,0.5,1.3,1.2,1.7,1.9c0.5,0.8,0.8,1.7,0.9,2.7h-1.8c-0.1-0.5-0.2-1.1-0.5-1.6c-0.3-0.5-0.7-1-1.2-1.5
			c-0.5-0.5-1.1-0.8-1.8-1.1c-0.7-0.3-1.5-0.4-2.4-0.4c-1.2,0-2.3,0.2-3.2,0.7c-0.9,0.4-1.6,1-2.2,1.8c-0.6,0.7-1,1.6-1.2,2.5
			c-0.3,0.9-0.4,1.9-0.4,2.8c0,1,0.1,1.9,0.4,2.8c0.3,0.9,0.7,1.7,1.2,2.5c0.6,0.7,1.3,1.3,2.2,1.8c0.9,0.4,1.9,0.7,3.2,0.7
			c1,0,1.9-0.2,2.7-0.5c0.8-0.3,1.5-0.8,2-1.3c0.6-0.6,1-1.2,1.2-2c0.3-0.8,0.4-1.6,0.4-2.6H74v-1.5h7.9V75.3z"/>
	</g>
	<g>
		<path class="st0" d="M85.2,56.8h2L98,72.5H98V56.8h1.8v18.5h-2L87,59.7H87v15.7h-1.8V56.8z"/>
	</g>
	<g>
		<g>
			<path class="st0" d="M457.6,75.4h-12.4c0-0.9,0.2-1.7,0.5-2.4c0.3-0.7,0.7-1.3,1.2-1.9c0.5-0.6,1.1-1.1,1.7-1.5
				c0.6-0.5,1.3-0.9,1.9-1.3c0.7-0.4,1.3-0.9,2-1.3c0.6-0.4,1.2-0.9,1.8-1.4c0.5-0.5,0.9-1,1.2-1.6c0.3-0.5,0.4-1.2,0.4-1.9
				c0-0.6-0.1-1.1-0.3-1.6c-0.2-0.5-0.5-0.9-0.9-1.2c-0.4-0.3-0.8-0.6-1.3-0.7c-0.5-0.2-1.1-0.2-1.6-0.2c-0.8,0-1.4,0.1-2,0.4
				c-0.5,0.3-1,0.7-1.3,1.2c-0.3,0.5-0.6,1-0.7,1.7c-0.2,0.6-0.2,1.3-0.2,2h-1.7c0-1,0.1-1.9,0.3-2.7c0.2-0.8,0.6-1.5,1.1-2.1
				c0.5-0.6,1.1-1.1,1.9-1.4c0.8-0.3,1.7-0.5,2.7-0.5c0.8,0,1.6,0.1,2.3,0.3c0.7,0.2,1.3,0.5,1.8,1c0.5,0.4,0.9,1,1.2,1.6
				c0.3,0.6,0.5,1.4,0.5,2.2c0,0.8-0.1,1.5-0.4,2.1c-0.3,0.6-0.6,1.2-1,1.7c-0.4,0.5-0.9,1-1.5,1.5c-0.6,0.4-1.2,0.9-1.8,1.2
				c-0.5,0.3-1,0.6-1.6,1c-0.6,0.4-1.2,0.8-1.7,1.2c-0.6,0.4-1.1,0.9-1.5,1.4c-0.4,0.5-0.7,1.1-0.8,1.7h10.4V75.4z"/>
		</g>
		<g>
			<path class="st0" d="M470,57.7c0.9,0.6,1.5,1.3,2,2.2c0.5,0.9,0.8,1.9,1,3c0.2,1.1,0.3,2.2,0.3,3.2c0,1.1-0.1,2.1-0.3,3.2
				c-0.2,1.1-0.5,2.1-1,3c-0.5,0.9-1.1,1.6-2,2.2c-0.9,0.6-2,0.9-3.3,0.9c-1.4,0-2.5-0.3-3.3-0.9c-0.9-0.6-1.5-1.3-2-2.2
				c-0.5-0.9-0.8-1.9-1-3c-0.2-1.1-0.3-2.2-0.3-3.2c0-1,0.1-2.1,0.3-3.2c0.2-1.1,0.5-2.1,1-3c0.5-0.9,1.1-1.6,2-2.2
				c0.8-0.6,2-0.9,3.3-0.9C468,56.8,469.1,57.1,470,57.7z M464.1,59c-0.6,0.5-1.1,1.2-1.5,2c-0.3,0.8-0.5,1.6-0.7,2.6
				c-0.1,0.9-0.2,1.8-0.2,2.5c0,0.8,0.1,1.6,0.2,2.5c0.1,0.9,0.3,1.8,0.7,2.6c0.3,0.8,0.8,1.5,1.5,2c0.6,0.5,1.5,0.8,2.6,0.8
				c1.1,0,1.9-0.3,2.6-0.8c0.6-0.5,1.1-1.2,1.5-2c0.3-0.8,0.5-1.6,0.7-2.6c0.1-0.9,0.2-1.8,0.2-2.5c0-0.8-0.1-1.6-0.2-2.5
				c-0.1-0.9-0.3-1.8-0.7-2.6c-0.3-0.8-0.8-1.4-1.5-2c-0.6-0.5-1.5-0.8-2.6-0.8C465.6,58.2,464.7,58.5,464.1,59z"/>
		</g>
		<g>
			<path class="st0" d="M476.7,60.2c0.7,0,1.4-0.1,2-0.1c0.6-0.1,1.1-0.2,1.6-0.4c0.4-0.2,0.8-0.5,1.1-1c0.3-0.4,0.5-1.1,0.6-1.9
				h1.4v18.6h-1.7v-14h-5V60.2z"/>
		</g>
		<g>
			<path class="st0" d="M490.4,56.8h12.1v1.6c-0.6,0.6-1.3,1.4-2.1,2.5c-0.8,1-1.6,2.3-2.4,3.7c-0.8,1.4-1.5,3-2,4.9
				c-0.6,1.8-0.9,3.8-1,6h-1.8c0.1-1.6,0.3-3.1,0.7-4.5c0.3-1.4,0.8-2.8,1.4-4.1c0.6-1.4,1.4-2.7,2.3-4.1c0.9-1.4,2-2.8,3.3-4.3
				h-10.4V56.8z"/>
		</g>
	</g>
	<g>
		<path class="st0" d="M137.7,66.2h-1.8c0-20.9,17-37.9,37.9-37.9v1.8C153.9,30.2,137.7,46.4,137.7,66.2z"/>
	</g>
	<g>
		<path class="st0" d="M211.6,66.2h-1.8c0-19.9-16.2-36.1-36.1-36.1v-1.8C194.6,28.3,211.6,45.3,211.6,66.2z"/>
	</g>
	<g>
		<path class="st0" d="M173.7,104.1c-20.9,0-37.9-17-37.9-37.9h1.8c0,19.9,16.2,36,36.1,36V104.1z"/>
	</g>
	<g>
		<rect x="118.3" y="65.3" class="st0" width="18.5" height="1.8"/>
	</g>
	<g>
		<rect x="172.8" y="65.3" class="st0" width="38.8" height="1.8"/>
	</g>
	<g>
		<rect x="408.3" y="65.3" class="st0" width="18.5" height="1.8"/>
	</g>
	<g>
		<path class="st0" d="M404.1,51.3c-8.2-18.1-29.6-26.1-47.7-17.9l-0.8-1.7c19-8.6,41.5-0.2,50.2,18.8L404.1,51.3z"/>
	</g>
	<g>
		<path class="st0" d="M387,100.7l-0.8-1.7c8.8-4,15.5-11.1,18.8-20.2c3.4-9,3-18.8-0.9-27.6l1.7-0.8c4.2,9.2,4.5,19.5,1,29
			C403.2,89,396.2,96.5,387,100.7z"/>
	</g>
	<g>
		<path class="st0" d="M371.4,104.1c-14.4,0-28.2-8.3-34.6-22.2l1.7-0.8c8.2,18.1,29.6,26.1,47.7,17.9l0.8,1.7
			C381.9,103,376.6,104.1,371.4,104.1z"/>
	</g>
	<g>
		<rect x="296.4" y="84.7" class="st0" width="1.8" height="37"/>
	</g>
	<g>
		<path class="st0" d="M335.2,47.7h-1.8c0-9.7-7.9-17.6-17.6-17.6v-1.8C326.5,28.3,335.2,37,335.2,47.7z"/>
	</g>
	<g>
		<path class="st0" d="M315.8,67.2v-1.8c9.7,0,17.6-7.9,17.6-17.6h1.8C335.2,58.5,326.5,67.2,315.8,67.2z"/>
	</g>
	<g>
		<path class="st0" d="M298.3,84.7h-1.8c0-10.7,8.7-19.4,19.4-19.4v1.8C306.1,67.2,298.3,75,298.3,84.7z"/>
	</g>
	<polygon class="st0" points="251.1,67.5 252.4,66.2 251.1,64.9 251.1,64.9 242.5,56.3 242.5,56.3 196.3,10.1 195,11.4 241.2,57.6 
		241.2,57.6 249.8,66.2 241.2,74.8 241.2,74.8 213.5,102.6 214.8,103.9 241.9,76.8 241.9,76.8 242.3,76.4 242.5,76.1 242.5,76.1 
		251.1,67.5 	"/>
	<polygon class="st0" points="270.3,74.8 261.7,66.2 270.9,57 270.9,57 298,29.9 296.7,28.6 269.6,55.7 269.6,55.7 259.1,66.2 
		269.6,76.8 269.6,76.8 278.2,85.4 279.5,84.1 270.3,74.8 	"/>
</g>
</svg>
