<?xml version="1.0" encoding="utf-8"?>
<!-- Generator: Adobe Illustrator 21.0.0, SVG Export Plug-In . SVG Version: 6.00 Build 0)  -->
<svg version="1.1" id="Layer_1" xmlns="http://www.w3.org/2000/svg" xmlns:xlink="http://www.w3.org/1999/xlink" x="0px" y="0px"
	 viewBox="0 0 2494.5 453.5" style="enable-background:new 0 0 2494.5 453.5;" xml:space="preserve">
<style type="text/css">
	.st0{fill:#FFFFFF;}
	.st1{opacity:0.7;}
	.st2{fill:#00A79D;}
	.st3{opacity:0.7;fill:#00A79D;}
	.st4{fill:#67E5A0;}
</style>
<g>
	<g>
		<path class="st0" d="M269.3,425.2c-3.1,0-6.1-1.7-7.6-4.7L134.1,165.4c-2.1-4.2-0.4-9.3,3.8-11.4c4.2-2.1,9.3-0.4,11.4,3.8
			l127.6,255.1c2.1,4.2,0.4,9.3-3.8,11.4C271.9,424.9,270.6,425.2,269.3,425.2z"/>
	</g>
	<g>
		<path class="st0" d="M224.3,425.2c-3.2,0-6.2-1.8-7.7-4.9l-80.2-170.1c-2-4.2-0.2-9.3,4.1-11.3c4.2-2,9.3-0.2,11.3,4.1L232,413.1
			c2,4.2,0.2,9.3-4.1,11.3C226.8,424.9,225.6,425.2,224.3,425.2z"/>
	</g>
	<g>
		<rect x="396.9" y="34" class="st0" width="255.1" height="42.5"/>
	</g>
	<g>
		<rect x="524.4" y="161.6" class="st0" width="127.6" height="85"/>
	</g>
	<g>
		<rect x="822" y="161.6" class="st0" width="85" height="127.6"/>
	</g>
	<g>
		<rect x="1077.2" y="289.1" class="st0" width="85" height="127.6"/>
	</g>
	<g>
		<rect x="14.2" y="161.6" class="st0" width="85" height="255.1"/>
	</g>
	<g>
		<rect x="1672.4" y="246.6" class="st0" width="85" height="170.1"/>
	</g>
	<g>
		<rect x="1502.3" y="161.5" class="st0" width="85" height="255.1"/>
	</g>
	<g>
		<rect x="1077.2" y="34" class="st0" width="85" height="85"/>
	</g>
	<g>
		<rect x="1204.7" y="161.6" class="st0" width="42.5" height="85"/>
	</g>
	<g>
		<path class="st0" d="M949.6,85c-4.7,0-8.5-3.8-8.5-8.5c0-4.7,3.8-8.5,8.5-8.5l170.1,0c4.7,0,8.5,3.8,8.5,8.5
			c0,4.7-3.8,8.5-8.5,8.5L949.6,85z"/>
	</g>
	<g>
		<path class="st0" d="M1544.9,340.2c-4.7,0-8.5-3.8-8.5-8.5c0-4.7,3.8-8.5,8.5-8.5l170.1,0c4.7,0,8.5,3.8,8.5,8.5
			c0,4.7-3.8,8.5-8.5,8.5L1544.9,340.2z"/>
	</g>
	<g>
		<path class="st0" d="M524.4,416.7c-70.5,0-127.6-57.1-127.6-127.6c0-70.5,57.1-127.6,127.6-127.6c0,0,0,38,0,85
			c-23.5,0-42.5,19-42.5,42.5c0,23.5,19,42.5,42.5,42.5C524.4,331.6,524.4,369.7,524.4,416.7z"/>
	</g>
	<g>
		<rect x="2225.2" y="34" class="st0" width="255.1" height="42.5"/>
	</g>
	<g>
		<rect x="2352.8" y="161.6" class="st0" width="127.6" height="85"/>
	</g>
	<g>
		<rect x="2225.2" y="331.6" class="st0" width="255.1" height="85"/>
	</g>
	<g>
		<path class="st0" d="M2352.8,416.7c-70.5,0-127.6-57.1-127.6-127.6s57.1-127.6,127.6-127.6c0,0,0,38,0,85
			c-23.5,0-42.5,19-42.5,42.5c0,23.5,19,42.5,42.5,42.5C2352.8,331.6,2352.8,369.7,2352.8,416.7z"/>
	</g>
	<g>
		<path class="st0" d="M1502.4,161.6c0-70.5,57.1-127.6,127.6-127.6c70.5,0,127.6,57.1,127.6,127.6c0,0-38,0-85,0
			c0-23.5-19-42.5-42.5-42.5c-23.5,0-42.5,19-42.5,42.5C1587.4,161.6,1549.4,161.6,1502.4,161.6z"/>
	</g>
	<g>
		<rect x="1885" y="331.6" class="st0" width="85" height="85.1"/>
	</g>
	<g>
		<path class="st0" d="M2140.1,161.6c0,70.5-57.1,127.6-127.6,127.6c-70.5,0-127.6-57.1-127.6-127.6c0,0,38,0,85,0
			c0,23.5,19,42.5,42.5,42.5s42.5-19,42.5-42.5C2055.1,161.6,2093.1,161.6,2140.1,161.6z"/>
	</g>
	<g>
		<path class="st0" d="M1885,161.6c0-70.5,57.1-127.6,127.6-127.6c70.5,0,127.6,57.1,127.6,127.6c0,0-38,0-85,0
			c0-23.5-19-42.5-42.5-42.5s-42.5,19-42.5,42.5C1970.1,161.6,1932,161.6,1885,161.6z"/>
	</g>
	<g>
		<path class="st0" d="M14.2,161.6C14.2,91.1,71.2,34,141.7,34c70.5,0,127.6,57.1,127.6,127.6c0,0-38,0-85,0
			c0-23.5-19-42.5-42.5-42.5c-23.5,0-42.5,19-42.5,42.5C99.2,161.6,61.2,161.6,14.2,161.6z"/>
	</g>
	<g>
		<path class="st0" d="M269.3,161.6c0,70.5-57.1,127.6-127.6,127.6c-70.5,0-127.6-57.1-127.6-127.6c0,0,38,0,85,0
			c0,23.5,19,42.5,42.5,42.5c23.5,0,42.5-19,42.5-42.5C184.2,161.6,222.3,161.6,269.3,161.6z"/>
	</g>
	<g>
		<path class="st0" d="M779.5,416.7c70.5,0,127.6-57.1,127.6-127.6c-47,0-85,0-85,0c0,23.5-19,42.5-42.5,42.5
			C779.5,378.6,779.5,416.7,779.5,416.7z"/>
	</g>
	<g>
		<path class="st0" d="M949.6,34C879.1,34,822,91.1,822,161.6c47,0,85,0,85,0c0-23.5,19-42.5,42.5-42.5C949.6,72,949.6,34,949.6,34z
			"/>
	</g>
	<g>
		<path class="st0" d="M1204.7,161.6c-70.5,0-127.6,57.1-127.6,127.6c47,0,85,0,85,0c0-23.5,19-42.5,42.5-42.5
			C1204.7,199.6,1204.7,161.6,1204.7,161.6z"/>
	</g>
	<g>
		<path class="st0" d="M1247.2,246.6c70.5,0,127.6-57.1,127.6-127.6c-47,0-85,0-85,0c0,23.5-19,42.5-42.5,42.5
			C1247.2,208.6,1247.2,246.6,1247.2,246.6z"/>
	</g>
	<g>
		<rect x="396.9" y="331.6" class="st0" width="255.1" height="85"/>
	</g>
	<g>
		<polygon class="st0" points="1374.8,416.7 1374.8,34 1289.7,34 1289.7,416.7 		"/>
	</g>
	<g>
		<path class="st0" d="M1927.6,382.7c-4.7,0-8.5-3.8-8.5-8.5l0-170.1c0-4.7,3.8-8.5,8.5-8.5c4.7,0,8.5,3.8,8.5,8.5l0,170.1
			C1936.1,378.9,1932.3,382.7,1927.6,382.7z"/>
	</g>
</g>
<g>
	<g class="st1">
		<path class="st2" d="M269.3,425.2c-3.1,0-6.1-1.7-7.6-4.7L134.1,165.4c-2.1-4.2-0.4-9.3,3.8-11.4c4.2-2.1,9.3-0.4,11.4,3.8
			l127.6,255.1c2.1,4.2,0.4,9.3-3.8,11.4C271.9,424.9,270.6,425.2,269.3,425.2z"/>
	</g>
	<g class="st1">
		<path class="st2" d="M224.3,425.2c-3.2,0-6.2-1.8-7.7-4.9l-80.2-170.1c-2-4.2-0.2-9.3,4.1-11.3c4.2-2,9.3-0.2,11.3,4.1L232,413.1
			c2,4.2,0.2,9.3-4.1,11.3C226.8,424.9,225.6,425.2,224.3,425.2z"/>
	</g>
	<rect x="396.9" y="34" class="st3" width="255.1" height="42.5"/>
	<rect x="524.4" y="161.6" class="st3" width="127.6" height="85"/>
	<rect x="822" y="161.6" class="st3" width="85" height="127.6"/>
	<rect x="1077.2" y="289.1" class="st3" width="85" height="127.6"/>
	<rect x="14.2" y="161.6" class="st4" width="85" height="255.1"/>
	<rect x="1672.4" y="246.6" class="st4" width="85" height="170.1"/>
	<rect x="1502.3" y="161.5" class="st3" width="85" height="255.1"/>
	<rect x="1077.2" y="34" class="st3" width="85" height="85"/>
	<rect x="1204.7" y="161.6" class="st3" width="42.5" height="85"/>
	<g class="st1">
		<path class="st2" d="M949.6,85c-4.7,0-8.5-3.8-8.5-8.5c0-4.7,3.8-8.5,8.5-8.5l170.1,0c4.7,0,8.5,3.8,8.5,8.5
			c0,4.7-3.8,8.5-8.5,8.5L949.6,85z"/>
	</g>
	<g class="st1">
		<path class="st2" d="M1544.9,340.2c-4.7,0-8.5-3.8-8.5-8.5c0-4.7,3.8-8.5,8.5-8.5l170.1,0c4.7,0,8.5,3.8,8.5,8.5
			c0,4.7-3.8,8.5-8.5,8.5L1544.9,340.2z"/>
	</g>
	<path class="st4" d="M524.4,416.7c-70.5,0-127.6-57.1-127.6-127.6c0-70.5,57.1-127.6,127.6-127.6c0,0,0,38,0,85
		c-23.5,0-42.5,19-42.5,42.5c0,23.5,19,42.5,42.5,42.5C524.4,331.6,524.4,369.7,524.4,416.7z"/>
	<rect x="2225.2" y="34" class="st4" width="255.1" height="42.5"/>
	<rect x="2352.8" y="161.6" class="st4" width="127.6" height="85"/>
	<rect x="2225.2" y="331.6" class="st4" width="255.1" height="85"/>
	<path class="st3" d="M2352.8,416.7c-70.5,0-127.6-57.1-127.6-127.6s57.1-127.6,127.6-127.6c0,0,0,38,0,85
		c-23.5,0-42.5,19-42.5,42.5c0,23.5,19,42.5,42.5,42.5C2352.8,331.6,2352.8,369.7,2352.8,416.7z"/>
	<path class="st4" d="M1502.4,161.6c0-70.5,57.1-127.6,127.6-127.6c70.5,0,127.6,57.1,127.6,127.6c0,0-38,0-85,0
		c0-23.5-19-42.5-42.5-42.5c-23.5,0-42.5,19-42.5,42.5C1587.4,161.6,1549.4,161.6,1502.4,161.6z"/>
	<rect x="1885" y="331.6" class="st3" width="85" height="85.1"/>
	<path class="st4" d="M2140.1,161.6c0,70.5-57.1,127.6-127.6,127.6c-70.5,0-127.6-57.1-127.6-127.6c0,0,38,0,85,0
		c0,23.5,19,42.5,42.5,42.5s42.5-19,42.5-42.5C2055.1,161.6,2093.1,161.6,2140.1,161.6z"/>
	<path class="st3" d="M1885,161.6c0-70.5,57.1-127.6,127.6-127.6c70.5,0,127.6,57.1,127.6,127.6c0,0-38,0-85,0
		c0-23.5-19-42.5-42.5-42.5s-42.5,19-42.5,42.5C1970.1,161.6,1932,161.6,1885,161.6z"/>
	<path class="st4" d="M14.2,161.6C14.2,91.1,71.2,34,141.7,34c70.5,0,127.6,57.1,127.6,127.6c0,0-38,0-85,0
		c0-23.5-19-42.5-42.5-42.5c-23.5,0-42.5,19-42.5,42.5C99.2,161.6,61.2,161.6,14.2,161.6z"/>
	<path class="st3" d="M269.3,161.6c0,70.5-57.1,127.6-127.6,127.6c-70.5,0-127.6-57.1-127.6-127.6c0,0,38,0,85,0
		c0,23.5,19,42.5,42.5,42.5c23.5,0,42.5-19,42.5-42.5C184.2,161.6,222.3,161.6,269.3,161.6z"/>
	<path class="st4" d="M779.5,416.7c70.5,0,127.6-57.1,127.6-127.6c-47,0-85,0-85,0c0,23.5-19,42.5-42.5,42.5
		C779.5,378.6,779.5,416.7,779.5,416.7z"/>
	<path class="st4" d="M949.6,34C879.1,34,822,91.1,822,161.6c47,0,85,0,85,0c0-23.5,19-42.5,42.5-42.5C949.6,72,949.6,34,949.6,34z"
		/>
	<path class="st4" d="M1204.7,161.6c-70.5,0-127.6,57.1-127.6,127.6c47,0,85,0,85,0c0-23.5,19-42.5,42.5-42.5
		C1204.7,199.6,1204.7,161.6,1204.7,161.6z"/>
	<path class="st4" d="M1247.2,246.6c70.5,0,127.6-57.1,127.6-127.6c-47,0-85,0-85,0c0,23.5-19,42.5-42.5,42.5
		C1247.2,208.6,1247.2,246.6,1247.2,246.6z"/>
	<rect x="396.9" y="331.6" class="st3" width="255.1" height="85"/>
	<polygon class="st3" points="1374.8,416.7 1374.8,34 1289.7,34 1289.7,416.7 	"/>
	<g class="st1">
		<path class="st2" d="M1927.6,382.7c-4.7,0-8.5-3.8-8.5-8.5l0-170.1c0-4.7,3.8-8.5,8.5-8.5c4.7,0,8.5,3.8,8.5,8.5l0,170.1
			C1936.1,378.9,1932.3,382.7,1927.6,382.7z"/>
	</g>
</g>
</svg>
